<svg xmlns="http://www.w3.org/2000/svg" version="1.1" xmlns:xlink="http://www.w3.org/1999/xlink" xmlns:svgjs="http://svgjs.dev/svgjs" width="2000" height="579" viewBox="0 0 2000 579"><g transform="matrix(1,0,0,1,-0.7705752939061767,35.80088099249156)"><svg viewBox="0 0 207 60" data-background-color="#002eff" preserveAspectRatio="xMidYMid meet" height="579" width="2000" xmlns="http://www.w3.org/2000/svg" xmlns:xlink="http://www.w3.org/1999/xlink"><g id="tight-bounds" transform="matrix(1,0,0,1,0.0797545429192894,0.26924999999999955)"><svg viewBox="0 0 206.84049091416142 59.4615" height="59.4615" width="206.84049091416142"><g><svg viewBox="0 0 206.84049091416142 59.4615" height="59.4615" width="206.84049091416142"><g><svg viewBox="0 0 206.84049091416142 59.4615" height="59.4615" width="206.84049091416142"><g id="textblocktransform"><svg viewBox="0 0 206.84049091416142 59.4615" height="59.4615" width="206.84049091416142" id="textblock"><g><svg viewBox="0 0 206.84049091416142 59.4615" height="59.4615" width="206.84049091416142"><g><svg><g></g><g></g></svg></g><g><svg><g><svg></svg></g><g></g></svg></g><g id="text-0"><svg viewBox="0 0 206.84049091416142 59.4615" height="59.4615" width="206.84049091416142"><g transform="matrix(1,0,0,1,0,3.552713678800501e-15)"><svg width="133.16140000000001" viewBox="1.95 -36.4 82.3 36.75" height="59.461499999999994" data-palette-color="#00fbff"><path d="M14.85 0.35L14.85 0.35Q11.5 0.35 9.08-0.88 6.65-2.1 5.08-4.23 3.5-6.35 2.73-9.05 1.95-11.75 1.95-14.75L1.95-14.75Q1.95-18.55 3.13-22.35 4.3-26.15 6.58-29.3 8.85-32.45 12.15-34.38 15.45-36.3 19.7-36.3L19.7-36.3Q23.05-36.3 25.48-35.08 27.9-33.85 29.48-31.73 31.05-29.6 31.83-26.9 32.6-24.2 32.6-21.2L32.6-21.2Q32.6-17.45 31.43-13.63 30.25-9.8 27.98-6.65 25.7-3.5 22.4-1.58 19.1 0.35 14.85 0.35ZM16.7-6L16.7-6Q18.45-6 19.75-7.2 21.05-8.4 21.93-10.38 22.8-12.35 23.25-14.75 23.7-17.15 23.7-19.6L23.7-19.6Q23.7-22.3 23.13-24.68 22.55-27.05 21.33-28.53 20.1-30 18.15-30L18.15-30Q16.45-30 15.1-28.83 13.75-27.65 12.8-25.68 11.85-23.7 11.38-21.33 10.9-18.95 10.9-16.55L10.9-16.55Q10.9-13.8 11.55-11.4 12.2-9 13.5-7.5 14.8-6 16.7-6ZM73 0L73 0Q71.4 0 69.92-0.9 68.45-1.8 67.55-3.75 66.65-5.7 66.65-8.75L66.65-8.75Q66.65-11.25 67.25-14.38 67.85-17.5 68.82-20.65 69.8-23.8 70.95-26.35L70.95-26.35Q67.5-24.05 64.9-20 62.3-15.95 60.4-10.6L60.4-10.6Q60.8-9 61.05-7.6 61.3-6.2 61.3-5.05L61.3-5.05Q61.3-2.85 60.25-1.6 59.2-0.35 56.6-0.35L56.6-0.35Q54.3-0.35 53.22-1.38 52.15-2.4 52.15-4.25L52.15-4.25Q52.15-5.45 52.57-7 53-8.55 53.8-10.35L53.8-10.35Q52.9-13 51.6-16.32 50.3-19.65 47.95-23.6L47.95-23.6Q47.25-20.65 46.52-17.73 45.8-14.8 45.32-12.33 44.85-9.85 44.85-8.15L44.85-8.15Q44.85-5.4 46.35-5.4L46.35-5.4 46.45-5.3Q46.45-3.65 45.62-2.48 44.8-1.3 43.52-0.68 42.25-0.05 40.85-0.05L40.85-0.05Q39.5-0.05 38.22-0.7 36.95-1.35 36.15-2.73 35.35-4.1 35.35-6.25L35.35-6.25Q35.35-8.3 36.07-10.73 36.8-13.15 37.9-15.68 39-18.2 40.15-20.63 41.3-23.05 42.22-25.18 43.15-27.3 43.45-28.9L43.45-28.9Q42.45-29.6 41.3-29.6L41.3-29.6Q40.35-29.6 39.37-28.98 38.4-28.35 37.55-26.9L37.55-26.9 37.2-27.05Q37.25-29.6 38.3-31.73 39.35-33.85 41.07-35.13 42.8-36.4 44.85-36.4L44.85-36.4Q47.2-36.4 49.7-34.35 52.2-32.3 54.32-27.6 56.45-22.9 57.75-14.9L57.75-14.9Q59.65-21.05 61.85-25.2 64.05-29.35 66.37-31.8 68.7-34.25 70.97-35.33 73.25-36.4 75.3-36.4L75.3-36.4Q77.85-36.4 79.87-35.15 81.9-33.9 83.07-32 84.25-30.1 84.25-28.2L84.25-28.2Q83-28.55 81.77-28.7 80.55-28.85 79.4-28.85L79.4-28.85Q78.25-28.85 77.2-28.7L77.2-28.7Q76.75-26.4 76.25-23.58 75.75-20.75 75.37-17.9 75-15.05 75-12.65L75-12.65Q75-10.2 75.5-8.65 76-7.1 77.25-7.1L77.25-7.1Q78.05-7.1 78.87-7.8 79.7-8.5 80.1-9.95L80.1-9.95 80.45-9.8Q80.45-6.5 79.35-4.33 78.25-2.15 76.52-1.07 74.8 0 73 0Z" opacity="1" transform="matrix(1,0,0,1,0,0)" fill="#00fbff" class="wordmark-text-0" data-fill-palette-color="primary"></path></svg></g><g><svg xmlns:x="http://ns.adobe.com/Extensibility/1.0/" xmlns:i="http://ns.adobe.com/AdobeIllustrator/10.0/" xmlns:graph="http://ns.adobe.com/Graphs/1.0/" xmlns="http://www.w3.org/2000/svg" xmlns:xlink="http://www.w3.org/1999/xlink" version="1.1" x="147.1999" y="0" viewBox="5.025 5.107 53.949000000000005 53.787" enable-background="new 0 0 64 64" xml:space="preserve" height="59.4615" width="59.64059091416142" class="icon-dxe-0" data-fill-palette-color="accent" id="dxe-0"><g fill="#00b2ff" data-fill-palette-color="accent"><g fill="#00b2ff" data-fill-palette-color="accent"><path d="M20.089 31H31V28.515C29.752 28.094 28.846 26.927 28.846 25.539S29.752 22.984 31 22.563V20.545A57.4 57.4 0 0 1 21.484 19.498C20.657 22.979 20.159 26.889 20.089 31" fill="#00b2ff" data-fill-palette-color="accent"></path><circle cx="32" cy="25.539" r="1.2" fill="#00b2ff" data-fill-palette-color="accent"></circle><path d="M31 18.544V5.107C27.267 5.848 23.963 10.683 21.991 17.564 24.818 18.117 27.856 18.453 31 18.544" fill="#00b2ff" data-fill-palette-color="accent"></path><path d="M21.553 44.795A58.5 58.5 0 0 1 31 43.94V33H20.089C20.161 37.226 20.684 41.24 21.553 44.795" fill="#00b2ff" data-fill-palette-color="accent"></path><path d="M39.075 46.404A3.14 3.14 0 0 1 36.307 48.077 3.15 3.15 0 0 1 33.342 45.957L32.999 45.95V58.893C36.658 58.165 39.906 53.51 41.89 46.847A52 52 0 0 0 39.075 46.404" fill="#00b2ff" data-fill-palette-color="accent"></path><path d="M45.911 33C45.842 37.462 45.31 41.637 44.411 45.334 47.78 46.119 50.825 47.209 53.316 48.541A26.84 26.84 0 0 0 58.974 33z" fill="#00b2ff" data-fill-palette-color="accent"></path><path d="M44.583 19.379C45.38 22.896 45.846 26.824 45.911 31H58.974A26.84 26.84 0 0 0 53.896 16.231C51.246 17.574 48.077 18.643 44.583 19.379" fill="#00b2ff" data-fill-palette-color="accent"></path><path d="M42.078 17.806C40.115 10.796 36.777 5.857 33 5.107V18.565A57 57 0 0 0 42.078 17.806" fill="#00b2ff" data-fill-palette-color="accent"></path><path d="M44.096 17.442C47.293 16.774 50.187 15.812 52.637 14.616A27.03 27.03 0 0 0 37.903 5.658C40.521 8.154 42.682 12.27 44.096 17.442" fill="#00b2ff" data-fill-palette-color="accent"></path><path d="M31 58.894V45.939A57 57 0 0 0 22.075 46.729C24.056 53.455 27.32 58.162 31 58.894" fill="#00b2ff" data-fill-palette-color="accent"></path><circle cx="12.993" cy="32" r="1.5" fill="#00b2ff" data-fill-palette-color="accent"></circle><path d="M20.055 47.107C16.965 47.769 14.162 48.704 11.778 49.861A27 27 0 0 0 26.093 58.34C23.567 55.934 21.469 52.021 20.055 47.107" fill="#00b2ff" data-fill-palette-color="accent"></path><path d="M9.623 31C10.058 29.542 11.395 28.469 12.993 28.469 14.649 28.469 16.033 29.619 16.412 31.16A0.97 0.97 0 0 1 16.922 31H18.088C18.155 26.696 18.65 22.657 19.493 19.059 16.091 18.233 13.034 17.088 10.522 15.663A26.85 26.85 0 0 0 5.025 31z" fill="#00b2ff" data-fill-palette-color="accent"></path><path d="M43.898 47.267C42.485 52.106 40.405 55.959 37.908 58.341A27 27 0 0 0 52.009 50.109C49.722 48.936 46.952 47.973 43.898 47.267" fill="#00b2ff" data-fill-palette-color="accent"></path><path d="M43.911 33H33V43.951C33.107 43.953 33.215 43.954 33.321 43.957 33.732 42.692 34.908 41.769 36.307 41.769A3.15 3.15 0 0 1 39.411 44.432C40.432 44.566 41.434 44.724 42.416 44.911 43.304 41.328 43.839 37.272 43.911 33" fill="#00b2ff" data-fill-palette-color="accent"></path><path d="M42.572 19.746A58.7 58.7 0 0 1 33 20.565V22.563C34.248 22.984 35.154 24.151 35.154 25.539S34.248 28.094 33 28.515V31H43.911C43.843 26.986 43.365 23.165 42.572 19.746" fill="#00b2ff" data-fill-palette-color="accent"></path><circle cx="36.308" cy="44.923" r="1.2" fill="#00b2ff" data-fill-palette-color="accent"></circle><path d="M18.089 33H16.923A0.97 0.97 0 0 1 16.413 32.84 3.53 3.53 0 0 1 12.994 35.531C11.396 35.531 10.058 34.458 9.624 33H5.025A26.85 26.85 0 0 0 10.468 48.269C13.058 46.957 16.148 45.91 19.549 45.175 18.674 41.518 18.157 37.398 18.089 33" fill="#00b2ff" data-fill-palette-color="accent"></path><path d="M19.991 17.126C21.406 12.102 23.531 8.104 26.096 5.658A27 27 0 0 0 11.824 14.084C14.131 15.349 16.9 16.377 19.991 17.126" fill="#00b2ff" data-fill-palette-color="accent"></path></g></g></svg><g></g></g></svg></g></svg></g></svg></g></svg></g><g></g></svg></g><defs></defs></svg><rect width="206.84049091416142" height="59.4615" fill="none" stroke="none" visibility="hidden"></rect></g></svg></g></svg>